<?xml version="1.0" encoding="UTF-8" standalone="no"?>
<svg xmlns="http://www.w3.org/2000/svg" height="32" viewBox="0 0 32 32" width="32">
<path d="m21.3 31.6c1.1 0 2.1-.9 2.1-2.1v-7.4s.2-1.9 1.5-1.9 1.1 2 3.5 2c1.2 0 3.2-.6 3.2-4.3s-2-4.1-3.2-4.1c-2.3 0-2.2 1.9-3.5 1.9s-1.5-2-1.5-2v-3c0-1.1-.9-2.1-2.1-2.1h-5.5s-1.8-.3-1.8-1.6 2-1.3 2-3.7c0-1.2-.7-3.1-4.3-3.1s-4.1 2.1-4.1 3.3c0 2.3 1.8 2.4 1.8 3.7s-1.8 1.5-1.8 1.5h-5c-1.1 0-2.1.9-2.1 2.1v4s-.2 3.1 2.3 3.1c1.6 0 1.7-2.1 3.8-2.1 1 0 2.1 1 2.1 3.1 0 2.2-1 3.3-2.1 3.3-2.1 0-2.2-2.1-3.8-2.1-2.5 0-2.3 3-2.3 3v6.4c0 1.1.9 2.1 2.1 2.1h6.7s3.3.2 3.3-2.3c0-1.6-2.1-1.9-2.1-4 0-1 1.1-2.3 3.3-2.3s3.4 1.3 3.4 2.3c0 2.1-2 2.4-2 4 0 2.5 3.3 2.3 3.3 2.3z" fill="#66C354"/>
<path d="m14.6 21.2c-.2 0-.4-.1-.5-.2-.8-.7-1.3-1.7-1.5-2.7-.1-.6-.4-1.2-.8-1.6-1.2-1.4-1.2-3.5 0-4.9 1.4-1.2 3.5-1.2 4.9 0 .4.5 1 .8 1.6.8 1 .2 2 .7 2.7 1.5.3.3.3.7 0 .9l-6 6c0 .1-.2.2-.4.2zm3.4-.6c.7.7 1.9.7 2.6 0s.7-1.9 0-2.6z" fill="#fffd7f"/>
</svg>
