<?xml version="1.0" encoding="utf-8"?>
<!-- Generator: Adobe Illustrator 22.0.1, SVG Export Plug-In . SVG Version: 6.00 Build 0)  -->
<svg version="1.1" id="Livello_1" xmlns="http://www.w3.org/2000/svg" xmlns:xlink="http://www.w3.org/1999/xlink" x="0px" y="0px"
	 viewBox="0 0 64 64" style="enable-background:new 0 0 64 64;" xml:space="preserve">
<style type="text/css">
	.st0{fill:url(#SVGID_1_);}
	.st1{fill:#FFFD7F;}
</style>
<linearGradient id="SVGID_1_" gradientUnits="userSpaceOnUse" x1="16.232" y1="48.2666" x2="16.232" y2="47.2666" gradientTransform="matrix(59.7082 0 0 -60.0144 -937.3388 2898.6895)">
	<stop  offset="0" style="stop-color:#66CC52"/>
	<stop  offset="1" style="stop-color:#60BF4C"/>
</linearGradient>
<path class="st0" d="M42,62c2.2,0,4-1.8,4-4V43.8c0,0,0.4-3.7,2.8-3.7c2.4,0,2.2,3.9,6.7,3.9c2.3,0,6.2-1.2,6.2-8.2
	s-3.9-7.9-6.2-7.9c-4.5,0-4.3,3.7-6.7,3.7S46,27.8,46,27.8V22c0-2.2-1.8-4-4-4H31.5c0,0-3.4-0.6-3.4-3s3.8-2.6,3.8-7.1
	c0-2.3-1.3-5.9-8.3-5.9s-8,3.6-8,5.9c0,4.5,3.4,4.7,3.4,7.1s-3.4,3-3.4,3H6c-2.2,0-4,1.8-4,4v7.8c0,0-0.4,6,4.4,6
	c3.1,0,3.2-4.1,7.3-4.1c2,0,4,1.9,4,6c0,4.2-2,6.3-4,6.3c-4,0-4.2-4.1-7.3-4.1c-4.8,0-4.4,5.8-4.4,5.8L2,58c0,2.2,1.8,4,4,4h13
	c0,0,6.3,0.4,6.3-4.4c0-3.1-4-3.6-4-7.7c0-2,2.2-4.5,6.4-4.5s6.6,2.5,6.6,4.5c0,4-3.9,4.6-3.9,7.7c0,4.9,6.3,4.4,6.3,4.4H42z"/>
<path class="st1" d="M29.2,42c-0.3,0-0.7-0.1-0.9-0.4c-1.5-1.4-2.5-3.2-2.9-5.2c-0.1-1.2-0.7-2.3-1.6-3.1c-2.4-2.7-2.4-6.8,0-9.5
	c2.7-2.4,6.8-2.4,9.5,0c0.8,0.9,1.9,1.5,3.1,1.6c2,0.3,3.9,1.3,5.2,2.9c0.5,0.5,0.5,1.3,0,1.8L30.1,41.6C29.9,41.9,29.5,42,29.2,42z
	 M35.7,40.9c1.4,1.4,3.7,1.4,5.1,0c1.4-1.4,1.4-3.7,0-5.1L35.7,40.9z"/>
</svg>
